<mxfile host="app.diagrams.net" modified="2020-09-25T19:23:57.696Z" agent="5.0 (Windows NT 10.0; Win64; x64) AppleWebKit/537.36 (KHTML, like Gecko) Chrome/85.0.4183.121 Safari/537.36" etag="_bkx1C74J5xDH9RimG58" version="13.7.5" type="github">
  <diagram id="ahora-BXQ_pVMHsatNbe" name="Page-1">
    <mxGraphModel dx="1422" dy="762" grid="1" gridSize="10" guides="1" tooltips="1" connect="1" arrows="1" fold="1" page="1" pageScale="1" pageWidth="827" pageHeight="1169" math="0" shadow="0">
      <root>
        <mxCell id="0" />
        <mxCell id="1" parent="0" />
        <mxCell id="dmRQjShE-WPzTf0DSA4U-10" value="" style="edgeStyle=orthogonalEdgeStyle;rounded=0;orthogonalLoop=1;jettySize=auto;html=1;" edge="1" parent="1" source="dmRQjShE-WPzTf0DSA4U-1" target="dmRQjShE-WPzTf0DSA4U-9">
          <mxGeometry relative="1" as="geometry" />
        </mxCell>
        <mxCell id="dmRQjShE-WPzTf0DSA4U-23" value="" style="edgeStyle=orthogonalEdgeStyle;rounded=0;orthogonalLoop=1;jettySize=auto;html=1;" edge="1" parent="1" source="dmRQjShE-WPzTf0DSA4U-1" target="dmRQjShE-WPzTf0DSA4U-8">
          <mxGeometry relative="1" as="geometry" />
        </mxCell>
        <mxCell id="dmRQjShE-WPzTf0DSA4U-1" value="Operação = Y" style="strokeWidth=2;html=1;shape=mxgraph.flowchart.decision;whiteSpace=wrap;" vertex="1" parent="1">
          <mxGeometry x="322.5" y="260" width="125" height="120" as="geometry" />
        </mxCell>
        <mxCell id="dmRQjShE-WPzTf0DSA4U-2" value="&lt;font style=&quot;font-size: 16px&quot;&gt;Inicio&lt;/font&gt;" style="strokeWidth=2;html=1;shape=mxgraph.flowchart.start_1;whiteSpace=wrap;" vertex="1" parent="1">
          <mxGeometry x="325" y="30" width="120" height="90" as="geometry" />
        </mxCell>
        <mxCell id="dmRQjShE-WPzTf0DSA4U-5" value="ValorA, Operação, ValorB" style="html=1;strokeWidth=2;shape=manualInput;whiteSpace=wrap;rounded=1;size=26;arcSize=11;" vertex="1" parent="1">
          <mxGeometry x="302.5" y="140" width="165" height="80" as="geometry" />
        </mxCell>
        <mxCell id="dmRQjShE-WPzTf0DSA4U-8" value="Fim" style="ellipse;whiteSpace=wrap;html=1;strokeWidth=2;" vertex="1" parent="1">
          <mxGeometry x="530" y="280" width="120" height="80" as="geometry" />
        </mxCell>
        <mxCell id="dmRQjShE-WPzTf0DSA4U-14" value="" style="edgeStyle=orthogonalEdgeStyle;rounded=0;orthogonalLoop=1;jettySize=auto;html=1;" edge="1" parent="1" source="dmRQjShE-WPzTf0DSA4U-9" target="dmRQjShE-WPzTf0DSA4U-13">
          <mxGeometry relative="1" as="geometry" />
        </mxCell>
        <mxCell id="dmRQjShE-WPzTf0DSA4U-16" value="" style="edgeStyle=orthogonalEdgeStyle;rounded=0;orthogonalLoop=1;jettySize=auto;html=1;" edge="1" parent="1" source="dmRQjShE-WPzTf0DSA4U-9" target="dmRQjShE-WPzTf0DSA4U-15">
          <mxGeometry relative="1" as="geometry" />
        </mxCell>
        <mxCell id="dmRQjShE-WPzTf0DSA4U-9" value="&lt;font style=&quot;font-size: 15px&quot;&gt;Operação = +&lt;/font&gt;" style="strokeWidth=2;html=1;shape=mxgraph.flowchart.decision;whiteSpace=wrap;" vertex="1" parent="1">
          <mxGeometry x="322.5" y="430" width="125" height="120" as="geometry" />
        </mxCell>
        <mxCell id="dmRQjShE-WPzTf0DSA4U-13" value="&lt;div style=&quot;background-color: rgb(255 , 255 , 254) ; font-size: 14px ; line-height: 19px&quot;&gt;resultado = valor1 + valor2&lt;/div&gt;" style="whiteSpace=wrap;html=1;strokeWidth=2;" vertex="1" parent="1">
          <mxGeometry x="530" y="460" width="190" height="60" as="geometry" />
        </mxCell>
        <mxCell id="dmRQjShE-WPzTf0DSA4U-18" value="" style="edgeStyle=orthogonalEdgeStyle;rounded=0;orthogonalLoop=1;jettySize=auto;html=1;" edge="1" parent="1" source="dmRQjShE-WPzTf0DSA4U-15">
          <mxGeometry relative="1" as="geometry">
            <mxPoint x="530" y="660" as="targetPoint" />
          </mxGeometry>
        </mxCell>
        <mxCell id="dmRQjShE-WPzTf0DSA4U-20" value="" style="edgeStyle=orthogonalEdgeStyle;rounded=0;orthogonalLoop=1;jettySize=auto;html=1;" edge="1" parent="1" source="dmRQjShE-WPzTf0DSA4U-15" target="dmRQjShE-WPzTf0DSA4U-19">
          <mxGeometry relative="1" as="geometry" />
        </mxCell>
        <mxCell id="dmRQjShE-WPzTf0DSA4U-15" value="&lt;span style=&quot;font-size: 15px&quot;&gt;Operação = -&lt;/span&gt;" style="rhombus;whiteSpace=wrap;html=1;strokeWidth=2;" vertex="1" parent="1">
          <mxGeometry x="322.5" y="600" width="125" height="120" as="geometry" />
        </mxCell>
        <mxCell id="dmRQjShE-WPzTf0DSA4U-22" value="" style="edgeStyle=orthogonalEdgeStyle;rounded=0;orthogonalLoop=1;jettySize=auto;html=1;" edge="1" parent="1" source="dmRQjShE-WPzTf0DSA4U-19">
          <mxGeometry relative="1" as="geometry">
            <mxPoint x="530" y="810" as="targetPoint" />
          </mxGeometry>
        </mxCell>
        <mxCell id="dmRQjShE-WPzTf0DSA4U-26" value="" style="edgeStyle=orthogonalEdgeStyle;rounded=0;orthogonalLoop=1;jettySize=auto;html=1;" edge="1" parent="1" source="dmRQjShE-WPzTf0DSA4U-19" target="dmRQjShE-WPzTf0DSA4U-25">
          <mxGeometry relative="1" as="geometry" />
        </mxCell>
        <mxCell id="dmRQjShE-WPzTf0DSA4U-19" value="&lt;span style=&quot;font-size: 15px&quot;&gt;Operação = *&lt;/span&gt;" style="rhombus;whiteSpace=wrap;html=1;strokeWidth=2;" vertex="1" parent="1">
          <mxGeometry x="327.5" y="750" width="115" height="120" as="geometry" />
        </mxCell>
        <mxCell id="dmRQjShE-WPzTf0DSA4U-37" value="" style="edgeStyle=orthogonalEdgeStyle;rounded=0;orthogonalLoop=1;jettySize=auto;html=1;" edge="1" parent="1" source="dmRQjShE-WPzTf0DSA4U-25" target="dmRQjShE-WPzTf0DSA4U-36">
          <mxGeometry relative="1" as="geometry" />
        </mxCell>
        <mxCell id="dmRQjShE-WPzTf0DSA4U-25" value="&lt;span style=&quot;font-size: 15px&quot;&gt;Operação = /&lt;/span&gt;" style="rhombus;whiteSpace=wrap;html=1;strokeWidth=2;" vertex="1" parent="1">
          <mxGeometry x="325" y="910" width="120" height="120" as="geometry" />
        </mxCell>
        <mxCell id="dmRQjShE-WPzTf0DSA4U-32" value="&lt;div style=&quot;background-color: rgb(255 , 255 , 254) ; font-size: 14px ; line-height: 19px&quot;&gt;resultado = valor1 - valor2&lt;/div&gt;" style="whiteSpace=wrap;html=1;strokeWidth=2;" vertex="1" parent="1">
          <mxGeometry x="530" y="630" width="190" height="60" as="geometry" />
        </mxCell>
        <mxCell id="dmRQjShE-WPzTf0DSA4U-34" value="&lt;div style=&quot;background-color: rgb(255 , 255 , 254) ; font-size: 14px ; line-height: 19px&quot;&gt;resultado = valor1 * valor2&lt;/div&gt;" style="whiteSpace=wrap;html=1;strokeWidth=2;" vertex="1" parent="1">
          <mxGeometry x="530" y="780" width="190" height="60" as="geometry" />
        </mxCell>
        <mxCell id="dmRQjShE-WPzTf0DSA4U-35" value="&lt;div style=&quot;background-color: rgb(255 , 255 , 254) ; font-size: 14px ; line-height: 19px&quot;&gt;resultado = valor1 / valor2&lt;/div&gt;" style="whiteSpace=wrap;html=1;strokeWidth=2;" vertex="1" parent="1">
          <mxGeometry x="670" y="940" width="190" height="60" as="geometry" />
        </mxCell>
        <mxCell id="dmRQjShE-WPzTf0DSA4U-38" value="" style="edgeStyle=orthogonalEdgeStyle;rounded=0;orthogonalLoop=1;jettySize=auto;html=1;" edge="1" parent="1" source="dmRQjShE-WPzTf0DSA4U-36" target="dmRQjShE-WPzTf0DSA4U-35">
          <mxGeometry relative="1" as="geometry" />
        </mxCell>
        <mxCell id="dmRQjShE-WPzTf0DSA4U-40" value="" style="edgeStyle=orthogonalEdgeStyle;rounded=0;orthogonalLoop=1;jettySize=auto;html=1;" edge="1" parent="1" source="dmRQjShE-WPzTf0DSA4U-36" target="dmRQjShE-WPzTf0DSA4U-39">
          <mxGeometry relative="1" as="geometry" />
        </mxCell>
        <mxCell id="dmRQjShE-WPzTf0DSA4U-36" value="Valor = 0" style="rhombus;whiteSpace=wrap;html=1;strokeWidth=2;" vertex="1" parent="1">
          <mxGeometry x="495" y="910" width="125" height="120" as="geometry" />
        </mxCell>
        <mxCell id="dmRQjShE-WPzTf0DSA4U-39" value="Fim" style="ellipse;whiteSpace=wrap;html=1;strokeWidth=2;" vertex="1" parent="1">
          <mxGeometry x="497.5" y="1060" width="120" height="80" as="geometry" />
        </mxCell>
      </root>
    </mxGraphModel>
  </diagram>
</mxfile>
